# xmcd
#
# Track frame offsets: 
#        150
#        22849
#        39038
#        62226
#        77108
#        91291
#        106326
#        119705
#        134995
#        149453
#        163771
#        178859
#
# Disc length: 2572 seconds
#
# Revision: 0
# Processed by: cddbd v1.5.2PL0 Copyright (c) Steve Scherf et al.
# Submitted via: ExactAudioCopy v0.99pb5
#
DISCID=a90a0a0c
DTITLE=Various Artist - เสรีภาพ (ชุด ๑ มนต์การเมือง)
DYEAR=1900
DGENRE=Songs For Live
TTITLE0=สุรชัย จันทิมาธร/คนปาดตาล
TTITLE1=อิศรา อนันตทัศน์/คนลากรถขยะ
TTITLE2=พงษ์สิทธิ์ คำภีร์/แป๊ะเจี๊ยะ
TTITLE3=เสน่ห์ โกมารชุน/สามล้อแค้น
TTITLE4=เสน่ห์ โกมารชุน/ผู้แทนควาย
TTITLE5=คำรณ สัมบุณณานนท์/มนต์การเมือง
TTITLE6=คำรณ สัมบุณณานนท์/ตาสีกำสรวล 1
TTITLE7=คำรณ สัมบุณณานนท์/ตาสีกำสรวล 2
TTITLE8=คำรณ สัมบุณณานนท์/ลูกสาวตาสี
TTITLE9=คำรณ สัมบุณณานนท์/ชีวิตนักโทษการเมือง
TTITLE10=ชาญ เย็นแข/กลิ่นโคลนสาบควาย
TTITLE11=ปรีชา บุญยเกียรติ/ลิเกชีวิต
EXTD=
EXTT0=
EXTT1=
EXTT2=
EXTT3=
EXTT4=
EXTT5=
EXTT6=
EXTT7=
EXTT8=
EXTT9=
EXTT10=
EXTT11=
PLAYORDER=
